<?xml version="1.0" standalone="no"?>
<!DOCTYPE svg PUBLIC "-//W3C//DTD SVG 20010904//EN"
 "http://www.w3.org/TR/2001/REC-SVG-20010904/DTD/svg10.dtd">
<svg version="1.0" xmlns="http://www.w3.org/2000/svg"
 width="173.000000pt" height="173.000000pt" viewBox="0 0 173.000000 173.000000"
 preserveAspectRatio="xMidYMid meet">
<metadata>
Created by potrace 1.14, written by Peter Selinger 2001-2017
</metadata>
<g transform="translate(0.000000,173.000000) scale(0.100000,-0.100000)"
fill="#000000" stroke="none">
<path d="M558 1447 c-15 -7 -37 -25 -50 -42 l-23 -29 -3 -391 c-1 -214 0 -400
3 -412 6 -25 34 -30 53 -11 9 9 12 111 12 398 0 418 0 416 54 426 24 4 54 -10
165 -77 75 -45 152 -92 171 -104 19 -13 121 -75 227 -140 112 -68 195 -125
198 -136 12 -38 -8 -59 -128 -132 -67 -41 -218 -132 -334 -203 -194 -118 -213
-131 -213 -156 0 -22 5 -28 21 -28 12 0 172 91 357 202 353 213 372 228 372
297 0 69 -23 88 -327 271 -159 96 -317 192 -353 215 -109 68 -145 78 -202 52z"/>
<path d="M554 405 c-7 -29 1 -45 25 -45 43 0 45 60 3 67 -16 2 -23 -4 -28 -22z"/>
</g>
</svg>
